<svg width="736" height="1024" viewBox="0 0 736 1024" fill="none" xmlns="http://www.w3.org/2000/svg">
<path d="M138 1009.16C101.003 1009.16 64.5056 1009.17 28.0082 1009.16C20.6785 1009.16 20.6577 1009.14 20.6697 1001.63C20.7047 979.628 20.3697 957.621 20.9121 935.635C21.4631 913.298 23.7019 891.09 31.5827 869.917C42.7151 840.009 64.3039 820.328 93.0658 807.806C116.658 797.534 141.601 792.769 166.951 789.647C169.567 789.325 172.161 788.826 175.734 788.254C170.566 782.068 165.765 776.466 161.12 770.738C137.065 741.067 119.178 707.99 106.304 672.074C95.7432 642.612 89.4297 612.243 85.959 581.218C79.53 523.75 86.6012 467.956 107.081 413.907C126.99 361.367 156.17 314.243 191.586 270.86C218.612 237.752 248.207 207.115 280.723 179.338C281.736 178.473 282.594 177.409 283.67 176.641C286.202 174.833 286.274 173.095 284.579 170.409C275.705 156.357 270.682 140.982 269.608 124.374C267.576 92.9598 277.618 65.9624 300.199 44.0757C344.11 1.51677 416.473 8.18728 452.07 57.8687C465.302 76.3362 471.229 97.1635 471.522 119.755C471.552 122.074 470.495 123.481 469.012 124.888C448.188 144.652 433.281 168.676 419.81 193.675C396.109 237.656 380.323 284.542 368.814 333.02C360.078 369.816 353.969 407.017 350.174 444.628C347.683 469.31 346.097 494.041 345.225 518.83C345.068 523.29 346.236 524.996 351.013 524.928C368.508 524.679 386.01 524.747 403.507 524.906C407.795 524.945 409.692 523.958 409.771 519.088C410.295 486.796 412.624 454.634 416.478 422.543C420.811 386.465 427.669 350.969 437.367 315.944C448.366 276.22 466.451 239.849 488.157 205.087C488.762 204.117 489.536 203.254 490.128 202.477C492.189 202.255 493.041 203.672 494.063 204.677C521.988 232.145 549.308 260.165 573.57 291.017C599.321 323.761 621.703 358.592 638.427 396.815C651.694 427.136 661.001 458.67 665.338 491.582C669.869 525.973 669.044 560.289 664.538 594.626C658.447 641.036 644.557 684.85 621.73 725.768C610.328 746.207 596.809 765.144 581.227 782.611C579.912 784.085 578.381 785.437 577.728 787.854C582.567 790.266 587.965 789.911 593.056 790.629C614.058 793.588 634.715 797.902 654.43 805.875C679.511 816.017 700.511 831.245 713.763 855.514C723 872.428 727.225 890.844 729.325 909.861C732.718 940.592 730.856 971.429 731.33 1002.22C731.437 1009.15 731.357 1009.16 724.463 1009.16C668.134 1009.16 611.804 1009.15 555.475 1009.15C416.483 1009.15 277.492 1009.16 138 1009.16ZM390.878 188.42C404.636 161.886 419.928 136.362 440.168 114.141C442.155 111.961 443.008 109.761 442.543 106.924C438.666 83.238 426.436 65.076 405.573 53.3692C374.499 35.9323 336.565 43.3648 313.849 70.7162C291.586 97.5219 291.867 136.527 314.285 163.749C318.214 168.52 323.161 172.135 327.274 176.165C327.188 177.859 326.207 178.306 325.434 178.905C292.026 204.787 261.441 233.66 233.304 265.191C202.344 299.885 175.225 337.253 153.585 378.473C131.136 421.234 116.204 466.383 112.541 514.721C110.753 538.315 111.615 562.021 114.528 585.552C119.157 622.942 128.647 658.968 144.93 693.108C160.806 726.395 181.578 756.042 208.663 781.219C211.854 784.186 215.029 785.086 219.003 784.588C237.692 782.25 256.521 781.893 275.292 780.94C298.39 779.766 321.534 779.24 344.664 779.008C368.813 778.765 392.964 778.907 417.125 779.337C456.099 780.031 495.014 781.326 533.85 784.685C537.799 785.027 540.911 784.014 543.627 781.012C546.972 777.314 550.685 773.95 554.172 770.376C584.854 738.922 606.168 701.756 620.511 660.486C635.938 616.094 641.53 570.251 639.979 523.389C639.057 495.567 634.112 468.489 625.75 442.009C612.058 398.65 590.126 359.601 563.203 323.196C544.938 298.5 524.63 275.565 503.053 253.739C500.997 251.659 499.389 248.992 495.778 247.581C492.686 253.454 489.381 259.193 486.569 265.163C470.653 298.948 460.528 334.554 453.143 371.062C445.971 406.511 441.805 442.34 439.482 478.369C437.993 501.459 436.791 524.602 437.313 547.77C437.406 551.904 435.949 553.279 431.829 553.266C395.334 553.156 358.838 553.15 322.343 553.28C317.883 553.296 316.536 551.664 316.73 547.379C317.229 536.399 317.482 525.406 317.69 514.415C318.187 488.099 320.195 461.875 322.984 435.727C326.46 403.13 331.474 370.764 338.661 338.744C350.302 286.887 366.464 236.623 390.878 188.42ZM617.207 823.369C615.578 823.029 613.953 822.675 612.321 822.352C587.298 817.405 561.945 815.259 536.577 813.002C501.227 809.858 465.807 808.091 430.353 807.544C389.871 806.92 349.377 806.772 308.885 807.912C288.237 808.494 267.602 809.226 246.996 810.532C222.077 812.111 197.199 814.229 172.393 817.192C150.848 819.765 129.555 823.335 109.244 831.321C81.8901 842.077 62.5463 860.368 54.8021 889.494C51.9269 900.308 50.2065 911.312 49.7132 922.482C48.9127 940.609 48.1522 958.739 48.965 976.893C49.086 979.595 50.2219 980.858 52.9557 980.751C54.9523 980.673 56.9549 980.752 58.9549 980.752C256.62 980.766 454.286 980.779 651.951 980.791C667.451 980.791 682.952 980.703 698.451 980.83C702.189 980.861 703.774 979.885 703.743 975.761C703.565 952.281 704.01 928.778 700.696 905.442C697.008 879.472 686.867 857.186 664.058 842.298C649.928 833.075 634.238 827.639 617.207 823.369Z" fill="black"/>
<path d="M390.878 188.42C404.636 161.886 419.928 136.362 440.168 114.141C442.155 111.961 443.008 109.761 442.543 106.924C438.666 83.238 426.436 65.076 405.573 53.3692C374.499 35.9323 336.565 43.3648 313.849 70.7162C291.586 97.5219 291.867 136.527 314.285 163.749C318.214 168.52 323.161 172.135 327.274 176.165C327.188 177.859 326.207 178.306 325.434 178.905C292.026 204.787 261.441 233.66 233.304 265.191C202.344 299.885 175.225 337.253 153.585 378.473C131.136 421.234 116.204 466.383 112.541 514.721C110.753 538.315 111.615 562.021 114.528 585.552C119.157 622.942 128.647 658.968 144.93 693.108C160.806 726.395 181.578 756.042 208.663 781.219C211.854 784.186 215.029 785.086 219.003 784.588C237.692 782.25 256.521 781.893 275.292 780.94C298.39 779.766 321.534 779.24 344.664 779.008C368.813 778.765 392.964 778.907 417.125 779.337C456.099 780.031 495.014 781.326 533.85 784.685C537.799 785.027 540.911 784.014 543.627 781.012C546.972 777.314 550.685 773.95 554.172 770.376C584.854 738.922 606.168 701.756 620.511 660.486C635.938 616.094 641.53 570.251 639.979 523.389C639.057 495.567 634.112 468.489 625.75 442.009C612.058 398.65 590.126 359.601 563.203 323.196C544.938 298.5 524.63 275.565 503.053 253.739C500.997 251.659 499.389 248.992 495.778 247.581C492.686 253.454 489.381 259.193 486.569 265.163C470.653 298.948 460.528 334.554 453.143 371.062C445.971 406.511 441.805 442.34 439.482 478.369C437.993 501.459 436.791 524.602 437.313 547.77C437.406 551.904 435.949 553.279 431.829 553.266C395.334 553.156 358.838 553.15 322.343 553.28C317.883 553.296 316.536 551.664 316.73 547.379C317.229 536.399 317.482 525.406 317.69 514.415C318.187 488.099 320.195 461.875 322.984 435.727C326.46 403.13 331.474 370.764 338.661 338.744C350.302 286.887 366.464 236.623 390.878 188.42Z" fill="#444444"/>
<path d="M617.207 823.369C615.578 823.029 613.953 822.675 612.321 822.352C587.298 817.405 561.945 815.259 536.577 813.002C501.227 809.858 465.807 808.091 430.353 807.544C389.871 806.92 349.377 806.772 308.885 807.912C288.237 808.494 267.602 809.226 246.996 810.532C222.077 812.111 197.199 814.229 172.393 817.192C150.848 819.765 129.555 823.335 109.244 831.321C81.8901 842.077 62.5463 860.368 54.8021 889.494C51.9269 900.308 50.2065 911.312 49.7132 922.482C48.9127 940.609 48.1522 958.739 48.965 976.893C49.086 979.595 50.2219 980.858 52.9557 980.751C54.9523 980.673 56.9549 980.752 58.9549 980.752C256.62 980.766 454.286 980.779 651.951 980.791C667.451 980.791 682.952 980.703 698.451 980.83C702.189 980.861 703.774 979.885 703.743 975.761C703.565 952.281 704.01 928.778 700.696 905.442C697.008 879.472 686.867 857.186 664.058 842.298C649.928 833.075 634.238 827.639 617.207 823.369Z" fill="#444444"/>
</svg>
