<?xml version="1.0" encoding="utf-8" ?>
<svg baseProfile="full" height="600" version="1.1" width="600" xmlns="http://www.w3.org/2000/svg" xmlns:ev="http://www.w3.org/2001/xml-events" xmlns:xlink="http://www.w3.org/1999/xlink"><defs /><rect fill="#eeeeda" height="100" width="100" x="0" y="0" /><rect fill="#769656" height="100" width="100" x="100" y="0" /><rect fill="#eeeeda" height="100" width="100" x="200" y="0" /><rect fill="#769656" height="100" width="100" x="300" y="0" /><rect fill="#eeeeda" height="100" width="100" x="400" y="0" /><rect fill="#769656" height="100" width="100" x="500" y="0" /><rect fill="#769656" height="100" width="100" x="0" y="100" /><rect fill="#eeeeda" height="100" width="100" x="100" y="100" /><rect fill="#769656" height="100" width="100" x="200" y="100" /><rect fill="#eeeeda" height="100" width="100" x="300" y="100" /><rect fill="#769656" height="100" width="100" x="400" y="100" /><rect fill="#eeeeda" height="100" width="100" x="500" y="100" /><rect fill="#eeeeda" height="100" width="100" x="0" y="200" /><rect fill="#769656" height="100" width="100" x="100" y="200" /><rect fill="#eeeeda" height="100" width="100" x="200" y="200" /><rect fill="#769656" height="100" width="100" x="300" y="200" /><rect fill="#eeeeda" height="100" width="100" x="400" y="200" /><rect fill="#769656" height="100" width="100" x="500" y="200" /><rect fill="#769656" height="100" width="100" x="0" y="300" /><rect fill="#eeeeda" height="100" width="100" x="100" y="300" /><rect fill="#769656" height="100" width="100" x="200" y="300" /><rect fill="#eeeeda" height="100" width="100" x="300" y="300" /><rect fill="#769656" height="100" width="100" x="400" y="300" /><rect fill="#eeeeda" height="100" width="100" x="500" y="300" /><rect fill="#eeeeda" height="100" width="100" x="0" y="400" /><rect fill="#769656" height="100" width="100" x="100" y="400" /><rect fill="#eeeeda" height="100" width="100" x="200" y="400" /><rect fill="#769656" height="100" width="100" x="300" y="400" /><rect fill="#eeeeda" height="100" width="100" x="400" y="400" /><rect fill="#769656" height="100" width="100" x="500" y="400" /><rect fill="#769656" height="100" width="100" x="0" y="500" /><rect fill="#eeeeda" height="100" width="100" x="100" y="500" /><rect fill="#769656" height="100" width="100" x="200" y="500" /><rect fill="#eeeeda" height="100" width="100" x="300" y="500" /><rect fill="#769656" height="100" width="100" x="400" y="500" /><rect fill="#eeeeda" height="100" width="100" x="500" y="500" /></svg>