<svg width="944" height="1024" viewBox="0 0 944 1024" fill="none" xmlns="http://www.w3.org/2000/svg">
<path d="M393 1002.97C308.673 1002.98 224.847 1002.98 141.02 1002.97C137.854 1002.97 134.688 1002.94 131.522 1002.92C128.921 1002.9 127.566 1001.83 127.611 998.995C128.029 972.681 126.952 946.362 128.462 920.045C129.372 904.183 131.299 888.572 136.103 873.402C146.848 839.471 169.807 817.122 202.274 803.833C205.314 802.588 208.343 801.317 211.879 799.851C208.496 793.481 204.676 788.096 200.814 782.74C185.662 761.726 168.073 742.828 149.923 724.436C124.296 698.47 97.7506 673.379 74.4746 645.182C49.4859 614.91 29.6547 581.897 20.3692 543.259C13.3839 514.192 13.2074 484.945 17.3459 455.494C21.0609 429.057 28.5544 403.801 40.7094 380.027C60.5831 341.157 89.3621 310.718 127.643 289.522C156.028 273.805 186.481 264.909 218.851 262.633C274.328 258.733 327.988 267.647 380.356 285.615C382.07 286.204 383.791 286.774 386.196 287.584C387.687 281.579 389.185 275.869 390.511 270.121C392.044 263.477 393.127 256.714 394.974 250.164C396.274 245.557 395.09 244.26 390.443 244.299C370.613 244.462 350.781 244.375 330.949 244.364C323.749 244.36 323.722 244.34 323.72 237.235C323.704 192.905 323.759 148.575 323.609 104.246C323.594 99.7374 324.741 98.541 329.448 98.376C351.949 97.5875 374.428 99.0035 396.919 98.692C401.451 98.6292 402.925 97.4365 402.878 92.762C402.658 70.4328 402.784 48.1 402.813 25.7685C402.821 19.0123 402.909 18.9227 409.378 18.9216C453.874 18.9143 498.371 18.9875 542.867 18.8376C547.756 18.8211 549.532 20.0436 549.467 25.2543C549.195 46.9157 549.365 68.5827 549.371 90.2476C549.373 97.6902 549.371 97.6972 556.583 97.6989C578.581 97.7038 600.58 97.8099 622.576 97.6196C627.345 97.5784 628.671 98.8779 628.635 103.875C628.361 142.369 628.449 180.866 628.474 219.363C628.478 225.356 628.837 231.349 628.84 237.343C628.844 243.704 628.327 244.162 622.025 244.168C602.36 244.188 582.695 244.161 563.03 244.191C561.071 244.194 559.032 243.777 556.435 245.206C559.615 259.335 562.834 273.64 565.968 287.567C568.406 288.637 569.873 287.6 571.375 287.051C601.981 275.865 633.403 268.304 665.809 264.443C685.559 262.09 705.349 260.706 725.114 261.882C796.384 266.123 854.632 295.198 896.336 354.262C919.802 387.495 932.096 424.895 936.503 465.23C939.539 493.012 938.298 520.346 931.345 547.414C923.691 577.214 909.516 603.796 891.42 628.455C877.094 647.977 860.668 665.639 843.919 683.077C821.759 706.147 798.315 727.97 777.058 751.909C764.883 765.619 753.355 779.848 743.389 795.28C742.592 796.514 741.958 797.855 741.331 798.997C742.344 801.312 744.387 801.282 746.026 801.916C773.288 812.458 795.986 828.436 809.426 855.347C816.492 869.496 820.35 884.617 822.278 900.233C826.19 931.903 824.878 963.741 825.119 995.526C825.174 1002.79 824.952 1002.97 817.456 1002.97C740.962 1002.98 664.468 1002.97 587.974 1002.97C523.15 1002.97 458.325 1002.97 393 1002.97ZM430.298 78.5001C430.301 91.9977 430.314 105.495 430.304 118.993C430.299 125.818 430.281 125.875 423.264 125.886C401.433 125.917 379.601 126.031 357.772 125.805C352.831 125.754 351.112 127.07 351.16 132.244C351.404 158.405 351.392 184.571 351.184 210.733C351.146 215.562 352.582 216.983 357.399 216.935C379.894 216.712 402.393 216.912 424.89 216.792C429.196 216.769 430.424 218.022 429.401 222.387C421.736 255.108 414.172 287.854 406.797 320.642C405.731 325.385 403.931 325.74 399.961 323.855C386.861 317.636 373.303 312.546 359.512 308.073C331.539 299 302.921 293.28 273.6 290.736C248.096 288.523 222.688 288.09 197.52 293.37C132.993 306.907 86.8436 343.605 59.9796 403.922C46.477 434.238 41.5994 466.319 42.2673 499.378C42.6957 520.581 46.9077 540.977 54.5787 560.698C66.485 591.306 85.7614 617.107 107.341 641.389C129.938 666.816 155.108 689.738 178.471 714.429C200.27 737.469 221.246 761.098 237.568 788.472C239.012 790.896 240.601 791.916 243.648 791.359C274.957 785.641 306.686 783.595 338.331 780.917C365.709 778.6 393.179 777.386 420.637 777.04C461.949 776.52 503.266 776.234 544.591 777.471C582.174 778.597 619.634 781.127 657.058 784.563C674.134 786.131 691.152 788.053 707.977 791.389C711.537 792.095 713.468 790.988 715.263 787.966C718.748 782.099 722.495 776.374 726.388 770.767C744.618 744.512 766.803 721.703 789.007 698.896C809.917 677.418 831.88 656.964 851.388 634.121C867.028 615.808 881.193 596.493 891.8 574.829C910.3 537.045 914.111 497.186 907.711 456.004C901.88 418.493 887.976 384.518 863.108 355.526C827.547 314.066 781.622 293.32 727.768 289.486C709.681 288.198 691.528 289.165 673.404 291.047C631.063 295.442 590.833 306.993 552.435 325.181C547.107 327.704 546.863 327.648 545.579 321.976C538.414 290.34 531.209 258.713 524.133 227.057C523.432 223.922 521.98 220.755 522.871 217.555C524.52 216.462 526.059 216.759 527.525 216.757C550.022 216.738 572.521 216.626 595.016 216.84C599.684 216.885 600.975 215.347 600.945 210.826C600.767 184.331 600.728 157.832 600.951 131.337C600.993 126.346 599.242 125.205 594.606 125.246C573.11 125.436 551.612 125.311 530.114 125.302C530.11 125.302 530.106 125.302 530.101 125.302C521.781 125.299 521.768 125.299 521.765 116.727C521.757 95.0628 521.677 73.3979 521.837 51.7349C521.868 47.5884 520.519 46.1576 516.377 46.3228C509.389 46.6016 502.382 46.4157 495.382 46.4184C475.885 46.4258 456.387 46.491 436.889 46.3907C432.188 46.3665 429.929 47.7468 430.193 53.0083C430.601 61.1535 430.299 69.3344 430.298 78.5001ZM312.5 975.041C330.144 975.04 347.788 975.04 365.432 975.04C506.584 975.038 647.737 975.035 788.889 975.033C790.389 975.033 791.89 974.974 793.388 975.033C796.222 975.143 797.675 974.093 797.678 970.989C797.699 945.684 798.185 920.36 793.72 895.291C788.585 866.459 773.547 845.137 746.763 832.33C732.032 825.287 716.489 821.158 700.578 818.316C665.304 812.015 629.569 809.845 593.897 807.501C564.333 805.558 534.706 804.379 505.057 804.304C467.076 804.209 429.082 803.759 391.131 805.475C355.556 807.083 320.028 809.443 284.579 813.09C260.28 815.59 236.491 819.955 213.701 828.876C198.91 834.665 185.754 842.979 175.837 855.69C162.356 872.968 158.221 893.399 156.322 914.534C154.708 932.49 155.363 950.494 155.277 968.482C155.245 975.003 155.302 975.023 162.034 975.025C200.638 975.033 239.241 975.035 278.31 975.038C289.663 975.039 301.056 975.04 312.5 975.041Z" fill="black"/>
<path d="M312.5 975.041L365.432 975.04C506.584 975.038 647.737 975.035 788.889 975.033C790.389 975.033 791.89 974.974 793.388 975.033C796.222 975.143 797.675 974.093 797.678 970.989C797.699 945.684 798.185 920.36 793.72 895.291C788.585 866.459 773.547 845.137 746.763 832.33C732.032 825.287 716.489 821.158 700.578 818.316C665.304 812.015 629.569 809.845 593.897 807.501C564.333 805.558 534.706 804.379 505.057 804.304C467.076 804.209 429.082 803.759 391.131 805.475C355.556 807.083 320.028 809.443 284.579 813.09C260.28 815.59 236.491 819.955 213.701 828.876C198.91 834.665 185.754 842.979 175.837 855.69C162.356 872.968 158.221 893.399 156.322 914.534C154.708 932.49 155.363 950.494 155.277 968.482C155.245 975.003 155.302 975.023 162.034 975.025C200.638 975.033 239.241 975.035 278.31 975.038L312.5 975.041Z" fill="#444444"/>
<path fill-rule="evenodd" clip-rule="evenodd" d="M430.302 90.3556C430.301 86.4037 430.299 82.4519 430.298 78.5001C430.298 75.706 430.327 73.0034 430.354 70.3655C430.417 64.3499 430.477 58.6705 430.193 53.0083C429.929 47.7468 432.188 46.3665 436.889 46.3907C451.343 46.465 465.798 46.4485 480.252 46.4319C485.296 46.4261 490.339 46.4203 495.382 46.4184C497.403 46.4176 499.424 46.4325 501.444 46.4475C506.425 46.4843 511.406 46.5211 516.377 46.3228C520.519 46.1576 521.868 47.5884 521.837 51.7349C521.714 68.3884 521.733 85.0428 521.752 101.697V101.719C521.758 106.722 521.763 111.724 521.765 116.727C521.768 125.299 521.781 125.299 530.101 125.302H530.114C535.92 125.305 541.726 125.315 547.532 125.326C563.224 125.355 578.916 125.385 594.606 125.246C599.242 125.205 600.993 126.346 600.951 131.337C600.728 157.832 600.767 184.331 600.945 210.826C600.975 215.347 599.684 216.885 595.016 216.84C577.481 216.674 559.945 216.705 542.408 216.736C537.447 216.744 532.486 216.753 527.525 216.757C527.269 216.758 527.01 216.749 526.749 216.74C525.518 216.697 524.232 216.653 522.871 217.555C522.194 219.987 522.87 222.4 523.542 224.794C523.754 225.55 523.965 226.304 524.133 227.057C529.495 251.044 534.931 275.015 540.367 298.986L540.381 299.045C542.114 306.688 543.848 314.332 545.579 321.976C546.863 327.648 547.107 327.704 552.435 325.181C590.833 306.993 631.063 295.442 673.404 291.047C691.528 289.165 709.681 288.198 727.768 289.486C781.622 293.32 827.547 314.066 863.108 355.526C887.976 384.518 901.88 418.493 907.711 456.004C914.111 497.186 910.3 537.045 891.8 574.829C881.193 596.493 867.028 615.808 851.388 634.121C837.735 650.108 822.878 664.927 808.022 679.744C801.652 686.097 795.282 692.45 789.007 698.896C766.803 721.703 744.618 744.512 726.388 770.767C722.495 776.374 718.748 782.099 715.263 787.966C713.468 790.988 711.537 792.095 707.977 791.389C691.152 788.053 674.134 786.131 657.058 784.563C619.634 781.127 582.174 778.597 544.591 777.471C503.266 776.234 461.949 776.52 420.637 777.04C393.179 777.386 365.709 778.6 338.331 780.917C333.694 781.309 329.056 781.688 324.418 782.067L324.377 782.07C297.37 784.275 270.356 786.481 243.648 791.359C240.601 791.916 239.012 790.896 237.568 788.472C221.246 761.098 200.27 737.469 178.471 714.429C168.815 704.224 158.851 694.322 148.887 684.42C134.743 670.363 120.599 656.307 107.341 641.389C85.7614 617.107 66.485 591.306 54.5787 560.698C46.9077 540.977 42.6957 520.581 42.2673 499.378C41.5994 466.319 46.477 434.238 59.9796 403.922C86.8436 343.605 132.993 306.907 197.52 293.37C222.688 288.09 248.096 288.523 273.6 290.736C302.921 293.28 331.539 299 359.512 308.073C373.303 312.546 386.861 317.636 399.961 323.855C403.931 325.74 405.731 325.385 406.797 320.642C414.172 287.854 421.736 255.108 429.401 222.387C430.424 218.022 429.196 216.769 424.89 216.792C415.209 216.843 405.528 216.836 395.847 216.828C383.031 216.818 370.214 216.808 357.399 216.935C352.582 216.983 351.146 215.562 351.184 210.733C351.392 184.571 351.404 158.405 351.16 132.244C351.112 127.07 352.831 125.754 357.772 125.805C375.332 125.987 392.894 125.949 410.455 125.91C414.725 125.901 418.994 125.892 423.264 125.886C430.281 125.875 430.299 125.818 430.304 118.993C430.311 109.474 430.307 99.9546 430.302 90.4353V90.3556ZM597.716 635.666C598.924 635.693 600.134 635.704 601.344 635.714C604.137 635.739 606.93 635.763 609.707 635.988C613.025 636.256 615.448 635.176 617.536 632.642C631.241 616.015 646.096 600.44 660.95 584.866C665.177 580.434 669.404 576.002 673.604 571.546C686.402 557.97 699.061 544.304 709.133 528.427C721.419 509.059 717.743 487.571 707.578 475.633C696.523 462.65 681.519 457.807 665.255 457.458C635.898 456.828 609.723 466.376 586.388 484.134C583.162 486.589 582.272 489.226 582.28 493.006C582.354 526.565 582.354 560.124 582.355 593.683C582.355 603.788 582.355 613.894 582.357 623.999C582.359 633.863 582.365 633.875 591.802 635.198C593.223 635.398 594.659 635.483 596.703 635.605C597.025 635.624 597.362 635.645 597.716 635.666ZM295.493 589.185C280.98 573.94 266.468 558.695 253.073 542.435C247.348 534.806 242.097 527.72 238.803 519.417C229.391 495.692 239.903 471.6 263.594 462.12C279.564 455.73 295.862 456.299 312.233 459.496C331.813 463.319 349.516 471.499 365.462 483.529C368.639 485.926 370.088 488.639 370.178 492.74C370.756 518.994 370.53 545.25 370.304 571.502C370.139 590.7 369.975 609.898 370.124 629.096C370.153 632.928 369.182 634.63 364.913 635.036C361.11 635.397 357.298 635.492 353.49 635.586C349.314 635.689 345.142 635.792 340.987 636.248C339.075 636.458 337.808 635.804 336.664 634.427C323.618 618.731 309.555 603.958 295.493 589.185Z" fill="#444444"/>
<path d="M569.929 461.898C593.85 444.093 620.148 433.486 649.604 430.505C673.48 428.089 695.939 431.789 715.747 445.671C745.581 466.579 753.167 507.604 734 540.238C723.537 558.053 709.786 573.219 695.757 588.163C673.192 612.202 650.033 635.701 629.365 661.452C627.376 663.93 625.339 664.762 622.123 664.567C601.682 663.331 581.232 662.231 560.772 661.374C556.275 661.186 554.721 659.744 554.731 655.171C554.856 597.013 554.852 538.855 554.757 480.697C554.75 476.679 555.883 473.636 558.963 471.135C562.581 468.198 566.089 465.125 569.929 461.898ZM597.716 635.666C598.925 635.693 600.134 635.703 601.344 635.714C604.137 635.739 606.93 635.763 609.707 635.987C613.025 636.256 615.448 635.176 617.536 632.642C631.241 616.014 646.096 600.44 660.95 584.866C665.177 580.434 669.404 576.002 673.604 571.546C686.402 557.969 699.061 544.304 709.133 528.427C721.419 509.059 717.743 487.571 707.578 475.632C696.523 462.649 681.519 457.807 665.256 457.458C635.898 456.827 609.723 466.376 586.389 484.133C583.162 486.589 582.272 489.226 582.28 493.006C582.354 526.565 582.354 560.123 582.355 593.682C582.355 603.788 582.355 613.893 582.357 623.999C582.359 633.863 582.365 633.875 591.802 635.198C593.223 635.397 594.659 635.483 596.703 635.605C597.025 635.624 597.362 635.644 597.716 635.666Z" fill="black"/>
<path d="M351.985 663.234C344.191 663.61 336.872 663.914 329.561 664.363C327.057 664.517 325.295 663.946 323.584 661.823C301.502 634.427 276.789 609.401 252.92 583.611C240.472 570.161 228.395 556.396 218.959 540.533C202.94 513.602 204.281 482.183 223.109 458.688C236.76 441.652 255.311 432.922 276.6 430.799C318.573 426.613 355.142 440.131 387.804 466.056C394.807 471.615 397.618 477.577 397.545 486.706C397.102 542.516 397.326 598.332 397.323 654.146C397.322 660.874 397.139 660.947 390.368 661.262C377.73 661.849 365.098 662.56 351.985 663.234ZM253.073 542.434C279.447 574.452 310.155 602.531 336.664 634.427C337.808 635.804 339.075 636.457 340.987 636.248C348.93 635.377 356.938 635.794 364.913 635.036C369.182 634.63 370.153 632.927 370.123 629.096C369.771 583.645 371.178 538.194 370.178 492.739C370.088 488.638 368.639 485.925 365.462 483.529C349.516 471.498 331.813 463.319 312.233 459.495C295.862 456.298 279.564 455.73 263.594 462.12C239.902 471.599 229.39 495.692 238.803 519.416C242.097 527.72 247.348 534.806 253.073 542.434Z" fill="black"/>
</svg>
