<svg width="848" height="1024" viewBox="0 0 848 1024" fill="none" xmlns="http://www.w3.org/2000/svg">
<g clip-path="url(#clip0_2403_153)">
<path d="M849 1017.53C846.914 1017.21 844.734 1017.37 842.572 1017.37C604.073 1017.38 365.575 1017.38 127.077 1017.37C116.816 1017.37 117.742 1018.4 117.739 1007.93C117.732 985.094 117.313 962.247 117.962 939.432C118.626 916.088 121.349 892.998 130.339 871.033C139.366 848.979 154.248 832.099 174.093 819.231C184.806 812.285 196.479 807.47 208.359 803.079C210.647 802.233 212.091 801.083 212.582 798.722C221.449 756.126 242.156 719.489 269.145 685.965C291.188 658.584 316.752 634.795 343.468 612.118C360.989 597.245 379.843 583.919 396.177 567.689C410.708 553.251 425.001 538.526 433.22 519.173C439.506 504.37 440.855 489.316 436.274 473.835C435.77 472.131 435.524 470.235 433.955 468.964C428.67 473.981 423.201 478.78 418.179 484.009C396.457 506.626 372.617 526.511 344.493 540.725C325.565 550.291 305.582 556.171 284.128 556.368C271.003 556.488 258.173 558.033 247.188 566.357C240.265 571.603 235.525 578.662 230.909 585.781C222.483 598.777 214.028 611.693 203.922 623.531C193.742 635.458 181.208 640.76 165.844 638.823C126.135 633.819 88.3089 622.556 53.4051 602.746C23.1415 585.57 7.54308 559.44 8.85572 524.247C9.53167 506.124 16.2342 489.969 26.7115 475.211C56.6053 433.105 87.3028 391.558 116.159 348.729C133.24 323.376 143.671 294.922 152.83 265.893C159.384 245.124 166.312 224.398 176.594 205.042C185.459 188.354 197.313 174.155 211.813 162.018C224.961 151.013 238.215 140.093 248.515 126.11C255.079 117.2 259.093 107.465 260.897 96.5241C262.79 85.0519 265.518 73.7171 267.902 62.3265C273.094 37.5131 293.22 17.754 318.068 13.1619C323.51 12.1561 329.039 12.7945 334.529 12.7074C337.019 12.6679 338.347 14.5485 339.855 16.0513C357.325 33.4624 374.75 50.9195 392.242 68.3092C403.113 79.1161 414.098 89.8073 424.978 100.605C426.834 102.447 428.786 103.477 431.491 103.747C477.916 108.389 522.499 120.118 565.167 138.993C601.338 154.994 634.647 175.635 664.802 201.263C708.344 238.268 742.235 282.786 767.147 334.11C786.01 372.971 798.708 413.883 806.308 456.382C809.616 474.882 811.875 493.51 813.49 512.247C815.095 530.866 815.492 549.488 815.337 568.144C815.157 589.871 811.679 611.224 807.76 632.505C800.07 674.275 788.921 715.203 777.383 756.03C773.446 769.963 769.633 783.934 765.426 797.785C763.972 802.573 765.413 804.397 769.915 806.073C790.843 813.864 809.306 825.338 823.7 842.852C836.059 857.892 843.256 875.212 847.423 893.995C847.819 895.779 848.245 897.557 848.829 899.669C849 939.021 849 978.042 849 1017.53ZM185.253 260.639C183.279 266.473 181.259 272.293 179.339 278.146C170.403 305.391 160.671 332.278 145.543 356.881C132.53 378.044 117.513 397.811 103.252 418.102C85.4395 443.443 67.2475 468.517 49.3889 493.826C35.4943 513.518 34.3961 539.011 46.2331 557.829C53.2545 568.992 63.824 575.919 75.1716 581.706C100.72 594.733 127.81 603.614 156.004 608.272C177.757 611.866 176.4 612.281 189.935 594.828C198.824 583.367 205.593 570.467 214.257 558.82C229.38 538.49 249.933 528.444 274.697 527.891C301.307 527.296 325.428 520.06 347.595 505.501C380.152 484.117 406.297 455.998 431.215 426.553C433.334 424.05 435.277 421.365 438.438 419.309C442.366 423.204 445.071 427.772 447.927 432.196C458.932 449.238 466.459 467.611 468.031 487.995C469.804 510.989 461.682 531.353 449.372 549.998C434.1 573.128 414.264 592.169 392.7 609.422C358.724 636.605 325.388 664.478 297.102 697.81C277.469 720.945 261.127 746.138 249.764 774.374C247.257 780.603 244.907 786.94 243.469 794.202C251.981 792.986 259.827 791.639 267.726 790.779C290.044 788.35 312.396 786.296 334.773 784.423C369.298 781.534 403.882 779.906 438.482 779.236C486.78 778.301 535.096 778.669 583.374 780.825C598.506 781.501 613.641 782.284 628.741 783.445C648.805 784.988 668.839 786.907 688.879 788.746C702.637 790.008 716.402 791.375 729.895 794.431C734.375 795.446 736.448 794.524 737.736 789.913C751.481 740.716 766.081 691.74 776.347 641.644C783.039 608.992 787.86 576.218 786.069 542.607C784.455 512.312 781.814 482.243 775.896 452.458C766.404 404.692 750.172 359.505 725.306 317.526C704.226 281.937 677.84 250.853 646.369 224.021C611.389 194.195 572.168 171.678 529.129 155.755C494.266 142.857 458.219 135.217 421.192 132.148C416.727 131.778 413.158 130.231 409.839 126.883C382.853 99.6677 355.618 72.7006 328.61 45.5067C325.264 42.1371 322.064 41.4939 317.887 43.1702C309.737 46.4412 304.072 52.383 300.171 59.984C294.065 71.8828 292.731 85.1669 290.472 98.0176C287.344 115.802 281.218 131.909 269.904 146.072C259.442 159.167 247.232 170.46 234.288 180.95C218.064 194.097 205.271 209.809 197.181 229.092C192.935 239.214 189.356 249.616 185.253 260.639ZM530.487 808.382C493.669 808.588 456.844 807.57 420.033 809.076C399.234 809.928 378.408 810.338 357.638 811.646C332.397 813.236 307.197 815.436 282.031 818.068C257.932 820.588 234.256 824.787 211.426 833.079C174.674 846.428 154.16 872.66 149.258 911.376C146.277 934.915 146.174 958.551 146.34 982.208C146.34 982.213 146.34 982.218 146.34 982.223C146.386 988.708 146.386 988.709 153.012 988.732C153.679 988.734 154.346 988.732 155.012 988.733C170.702 988.733 186.392 988.734 202.082 988.734C406.052 988.74 610.021 988.747 813.991 988.752C815.824 988.752 817.661 988.651 819.489 988.738C822.346 988.874 823.778 987.845 823.775 984.736C823.747 959.1 824.811 933.421 820.683 907.953C816.392 881.478 805.191 859.231 781.81 844.407C763.184 832.598 742.34 826.53 721.072 822.511C689.643 816.572 657.649 814.815 625.796 812.518C594.413 810.254 562.952 809.024 530.487 808.382Z" fill="black"/>
<path d="M530.487 808.382C493.669 808.588 456.844 807.57 420.033 809.076C399.234 809.928 378.408 810.338 357.638 811.646C332.397 813.236 307.197 815.436 282.031 818.068C257.932 820.588 234.256 824.787 211.426 833.079C174.674 846.428 154.16 872.66 149.258 911.376C146.277 934.915 146.174 958.551 146.34 982.208L146.34 982.223C146.386 988.708 146.386 988.709 153.012 988.732C153.679 988.734 154.346 988.732 155.012 988.733L202.082 988.734C406.052 988.74 610.021 988.747 813.991 988.752C815.824 988.752 817.661 988.651 819.489 988.738C822.346 988.874 823.778 987.845 823.775 984.736C823.747 959.1 824.811 933.421 820.683 907.953C816.392 881.478 805.191 859.231 781.81 844.407C763.184 832.598 742.34 826.53 721.072 822.511C689.643 816.572 657.649 814.815 625.796 812.518C594.413 810.254 562.952 809.024 530.487 808.382Z" fill="#444444"/>
<path d="M185.253 260.639C183.279 266.473 181.259 272.293 179.339 278.146C170.403 305.391 160.671 332.278 145.543 356.881C132.53 378.044 117.513 397.811 103.252 418.102C85.4395 443.443 67.2475 468.517 49.3889 493.826C35.4943 513.518 34.3961 539.011 46.2331 557.829C53.2545 568.992 63.824 575.919 75.1716 581.706C100.72 594.733 127.81 603.614 156.004 608.272C177.757 611.866 176.4 612.281 189.935 594.828C198.824 583.367 205.593 570.467 214.257 558.82C229.38 538.49 249.933 528.444 274.697 527.891C301.307 527.296 325.428 520.06 347.595 505.501C380.152 484.117 406.297 455.998 431.215 426.553C433.334 424.05 435.277 421.365 438.438 419.309C442.366 423.204 445.071 427.772 447.927 432.196C458.932 449.238 466.459 467.611 468.031 487.995C469.804 510.989 461.682 531.353 449.372 549.998C434.1 573.128 414.264 592.169 392.7 609.422C358.724 636.605 325.388 664.478 297.102 697.81C277.469 720.945 261.127 746.138 249.764 774.374C247.257 780.603 244.907 786.94 243.469 794.202C251.981 792.986 259.827 791.639 267.726 790.779C290.044 788.35 312.396 786.296 334.773 784.423C369.298 781.534 403.882 779.906 438.482 779.236C486.78 778.301 535.096 778.669 583.374 780.825C598.506 781.501 613.641 782.284 628.741 783.445C648.805 784.988 668.839 786.907 688.879 788.746C702.637 790.008 716.402 791.375 729.895 794.431C734.375 795.446 736.448 794.524 737.736 789.913C751.481 740.716 766.081 691.74 776.347 641.644C783.039 608.992 787.86 576.218 786.069 542.607C784.455 512.312 781.814 482.243 775.896 452.458C766.404 404.692 750.172 359.505 725.306 317.526C704.226 281.937 677.84 250.853 646.369 224.021C611.389 194.195 572.168 171.678 529.129 155.755C494.266 142.857 458.219 135.217 421.192 132.148C416.727 131.778 413.158 130.231 409.839 126.883C382.853 99.6677 355.618 72.7006 328.61 45.5067C325.264 42.1371 322.064 41.4939 317.887 43.1702C309.737 46.4412 304.072 52.383 300.171 59.984C294.065 71.8828 292.731 85.1669 290.472 98.0176C287.344 115.802 281.218 131.909 269.904 146.072C259.442 159.167 247.232 170.46 234.288 180.95C218.064 194.097 205.271 209.809 197.181 229.092C192.935 239.214 189.356 249.616 185.253 260.639Z" fill="#444444"/>
<path d="M333.296 229.435C349.031 232.174 360.037 240.416 365.619 255.03C370.52 267.862 366.387 278.936 354.44 288.248C342.936 297.216 329.897 299.973 315.851 297.979C299.374 295.641 283.939 296.851 270.738 308.336C270.376 308.651 269.893 308.871 269.429 309.011C269.154 309.094 268.806 308.933 268.176 308.831C268.049 304.488 269.656 300.435 270.784 296.373C275.846 278.142 282.199 260.422 295.198 246.107C305.202 235.09 317.126 227.763 333.296 229.435Z" fill="black"/>
</g>
<defs>
<clipPath id="clip0_2403_153">
<rect width="848" height="1024" fill="white"/>
</clipPath>
</defs>
</svg>
