<svg width="800" height="1024" viewBox="0 0 800 1024" fill="none" xmlns="http://www.w3.org/2000/svg">
<path d="M141 1010.25C102.171 1010.26 63.8416 1010.26 25.5125 1010.26C18.6407 1010.26 18.6059 1010.25 18.6345 1003.4C18.7397 978.26 17.8877 953.089 21.6508 928.085C27.3308 890.345 38.5102 854.57 58.5268 821.778C77.1971 791.191 101.849 766.739 132.262 747.866C161.134 729.95 187.646 709.106 210.13 683.43C228.566 662.378 243.67 639.226 255.378 613.75C266.157 590.294 273.32 565.808 278.193 540.56C278.694 537.96 279.145 535.364 278.759 532.746C277.028 531.559 275.162 531.586 273.365 531.622C249.208 532.114 225.054 532.145 200.899 531.48C198.774 531.422 197.024 531.266 195.934 529.065C189.291 515.646 180.962 503.119 175.191 489.226C168.817 473.88 167.365 457.807 166.504 441.42C165.977 431.381 168.801 425.332 177.767 419.801C203.136 404.151 227.707 387.209 252.567 370.737C254.614 369.381 256.891 368.24 258.562 365.702C210.584 313.603 191.377 252.615 205.02 182.696C214.505 134.083 239.547 94.0209 278.852 63.9581C360.04 1.86074 467.007 8.85706 538.517 75.5004C579.973 114.136 601.658 162.642 602.765 219.215C603.87 275.72 583.798 324.652 544.081 366.049C550.683 370.567 556.883 374.943 563.216 379.119C586.29 394.332 609.402 409.488 632.52 424.635C634.691 426.057 636.321 427.461 636.379 430.481C636.786 451.579 635.942 472.429 627.146 492.178C622.66 502.252 615.801 511.128 611.832 521.318C608.192 530.662 602.3 532.488 593.08 532.096C572.117 531.206 551.101 532.387 530.112 531.492C524.661 531.259 523.732 532.592 524.556 538.052C532.874 593.155 556.347 641.092 593.26 682.545C616.444 708.58 643.299 730.367 672.713 748.976C712.054 773.865 740.517 807.954 759.487 850.279C770.108 873.974 776.918 898.777 781.032 924.309C784.64 946.709 785.499 969.338 785.069 992.015C784.984 996.513 784.991 1001.02 785.085 1005.51C785.153 1008.79 783.978 1010.61 780.424 1010.29C779.267 1010.19 778.093 1010.28 776.926 1010.28C565.117 1010.27 353.309 1010.26 141 1010.25ZM718.5 976.723C727.667 976.719 736.84 976.53 746 976.792C750.319 976.916 751.923 975.614 751.689 971.138C750.874 955.508 749.91 939.862 747.241 924.459C742.698 898.243 734.665 873.117 722.025 849.548C707.763 822.953 688.905 800.299 663.874 783.386C638.323 766.121 612.935 748.794 590.404 727.538C562.518 701.23 539.139 671.576 521.589 637.444C510.274 615.439 501.806 592.406 496.212 568.245C491.427 547.576 488.963 526.638 487.024 505.578C487.015 505.487 487.007 505.398 486.999 505.309C486.334 498.096 486.319 497.933 493.675 497.947C522.507 498.002 551.339 498.037 580.172 498.033C582.585 498.033 585.308 498.631 586.902 495.899C595.35 481.423 603.011 466.697 602.811 449.246C602.779 446.48 602.014 444.573 599.625 443.015C564.06 419.818 528.532 396.563 493.011 373.299C491.101 372.048 488.899 371.029 487.832 367.937C534.141 337.731 562.667 295.516 568.036 239.931C573.413 184.254 555.178 136.526 513.781 98.5049C450.031 39.9543 353.98 40.62 289.899 98.1534C252.599 131.642 233.326 174.447 233.97 224.366C234.773 286.646 263.565 334.589 315.571 368.545C313.904 371.412 311.483 372.318 309.437 373.654C274.019 396.796 238.593 419.924 203.14 443.011C201.147 444.309 199.996 445.747 200.134 448.258C200.361 452.408 200.31 456.545 201.001 460.693C202.929 472.269 208.597 482.26 213.757 492.526C215.826 496.645 218.346 498.246 223.027 498.209C251.525 497.985 280.024 498.067 308.523 498.05C308.603 498.05 308.683 498.05 308.763 498.05C310.183 498.049 311.604 498.048 313.022 498.109C315.671 498.225 316.785 499.378 316.532 502.268C314.678 523.493 312.328 544.651 307.727 565.481C294.638 624.726 265.174 674.915 222.869 717.875C199.023 742.091 171.95 762.243 143.395 780.567C117.197 797.378 97.1968 820.16 82.3297 847.341C61.935 884.628 53.124 924.967 51.9567 967.185C51.6937 976.698 51.7064 976.701 61.5221 976.701C280.181 976.709 498.841 976.716 718.5 976.723Z" fill="black"/>
<path d="M718.5 976.723C727.667 976.719 736.84 976.53 746 976.792C750.319 976.916 751.923 975.614 751.689 971.138C750.874 955.508 749.91 939.862 747.241 924.459C742.698 898.243 734.665 873.117 722.025 849.548C707.763 822.953 688.905 800.299 663.874 783.386C638.323 766.121 612.935 748.794 590.404 727.538C562.518 701.23 539.139 671.576 521.589 637.444C510.274 615.439 501.806 592.406 496.212 568.245C491.427 547.576 488.963 526.638 487.024 505.578L486.999 505.309C486.334 498.096 486.319 497.933 493.675 497.947C522.507 498.002 551.339 498.037 580.172 498.033C582.585 498.033 585.308 498.631 586.902 495.899C595.35 481.423 603.011 466.697 602.811 449.246C602.779 446.48 602.014 444.573 599.625 443.015C564.06 419.818 528.532 396.563 493.011 373.299C491.101 372.048 488.899 371.029 487.832 367.937C534.141 337.731 562.667 295.516 568.036 239.931C573.413 184.254 555.178 136.526 513.781 98.5049C450.031 39.9543 353.98 40.62 289.899 98.1534C252.599 131.642 233.326 174.447 233.97 224.366C234.773 286.646 263.565 334.589 315.571 368.545C313.904 371.412 311.483 372.318 309.437 373.654C274.019 396.796 238.593 419.924 203.14 443.011C201.147 444.309 199.996 445.747 200.134 448.258C200.361 452.408 200.31 456.545 201.001 460.693C202.929 472.269 208.597 482.26 213.757 492.526C215.826 496.645 218.346 498.246 223.027 498.209C251.525 497.985 280.024 498.067 308.523 498.05L308.763 498.05C310.183 498.049 311.604 498.048 313.022 498.109C315.671 498.225 316.785 499.378 316.532 502.268C314.678 523.493 312.328 544.651 307.727 565.481C294.638 624.726 265.174 674.915 222.869 717.875C199.023 742.091 171.95 762.243 143.395 780.567C117.197 797.378 97.1968 820.16 82.3297 847.341C61.935 884.628 53.124 924.967 51.9567 967.185C51.6937 976.698 51.7064 976.701 61.5221 976.701C280.181 976.709 498.841 976.716 718.5 976.723Z" fill="#444444"/>
</svg>
