<svg width="864" height="1024" viewBox="0 0 864 1024" fill="none" xmlns="http://www.w3.org/2000/svg">
<path d="M383 973.34C279.503 973.344 176.506 973.347 73.5091 973.349C65.6956 973.349 65.6809 973.348 65.6884 965.35C65.7082 944.351 65.3489 923.341 65.8816 902.355C66.4091 881.572 67.7768 860.873 73.5268 840.617C83.7795 804.497 106.415 779.641 140.431 764.569C147.913 761.254 155.597 758.538 163.412 756.203C166.926 755.154 168.373 753.394 168.817 749.601C172.231 720.376 176.011 691.193 179.497 661.976C182.707 635.068 185.62 608.125 188.796 581.212C191.952 554.471 195.347 527.758 198.499 501.016C202.022 471.136 205.353 441.234 208.843 411.35C210.27 399.131 211.736 386.911 213.506 374.738C214.259 369.557 212.967 366.723 207.836 364.372C169.192 346.667 144.393 317.552 135.044 275.587C131.688 260.525 131.275 245.232 129.803 230.025C127.559 206.839 125.809 183.605 123.964 160.382C122.461 141.471 121.178 122.542 119.669 103.631C119.376 99.9535 120.824 97.8598 123.945 96.0864C156.804 77.4185 191.58 65.0215 229.616 62.4823C240.785 61.7366 251.934 62.2061 263.069 61.6346C267.915 61.3859 269.858 63.2908 270.843 67.7805C276.9 95.39 283.138 122.96 289.316 150.543C290.733 156.872 292.22 163.186 293.546 169.534C294.231 172.812 295.849 174.199 299.382 174.149C308.541 174.018 317.708 174.202 326.868 174.403C329.386 174.458 330.418 173.603 330.694 171.056C333.652 143.786 336.685 116.524 339.731 89.2635C341.059 77.3682 342.435 65.478 343.853 53.5932C344.2 50.6877 344.946 48.2701 348.666 47.6584C381.059 42.3322 413.532 37.8336 446.475 39.1063C468.112 39.9423 489.596 42.4767 510.934 46.2028C513.39 46.6318 515.872 47.1968 518.344 47.2036C524.276 47.22 526.6 50.1678 527.172 55.9148C529.036 74.6114 531.213 93.2775 533.373 111.943C535.073 126.644 536.937 141.326 538.706 156.019C539.263 160.642 539.927 165.262 540.206 169.905C540.384 172.848 541.516 174.078 544.465 174.055C553.797 173.98 563.133 173.916 572.463 174.083C576.055 174.147 576.969 172.022 577.592 169.231C582.629 146.674 587.666 124.116 592.733 101.566C595.395 89.7187 598.128 77.8871 600.807 66.0435C601.415 63.3566 602.531 61.7416 605.773 61.6383C642.113 60.4807 677.564 64.6559 711.531 78.4647C724.375 83.6858 736.45 90.4041 748.715 96.7689C750.631 97.7635 751.888 98.9113 751.677 101.385C750.332 117.135 749.122 132.897 747.807 148.65C746.34 166.224 744.992 183.811 743.262 201.36C740.848 225.841 740.708 250.586 735.632 274.759C727.874 311.709 707.623 339.725 674.63 358.361C669.988 360.983 665.413 363.716 660.394 365.604C657.603 366.655 656.487 368.283 656.902 371.708C660.546 401.743 663.857 431.818 667.402 461.866C670.889 491.423 674.601 520.953 678.092 550.51C681.271 577.428 684.199 604.376 687.399 631.291C690.46 657.044 693.763 682.768 696.892 708.514C698.457 721.388 700.004 734.267 701.285 747.172C701.796 752.314 703.516 755.308 709.016 756.946C736.231 765.051 760.383 778.186 777.942 801.36C791.259 818.936 797.843 839.204 801.325 860.673C803.569 874.506 803.961 888.462 804.433 902.443C805.153 923.767 804.787 945.087 804.941 966.408C804.991 973.323 804.912 973.345 797.987 973.345C659.824 973.346 521.662 973.343 383 973.34ZM223.398 538.843C221.518 555.033 219.663 571.226 217.751 587.413C215.293 608.223 212.776 629.027 210.309 649.836C208.428 665.693 206.6 681.555 204.722 697.412C202.923 712.608 201.105 727.801 199.26 742.991C198.803 746.758 200.08 747.934 204.039 747.464C204.507 747.409 204.975 747.353 205.443 747.297C224.625 745.022 243.815 742.745 263.049 740.992C297.37 737.863 331.788 735.953 366.227 735.047C402.688 734.088 439.162 733.725 475.655 734.523C513.114 735.342 550.519 736.662 587.883 739.557C613.941 741.576 639.962 743.795 665.856 747.37C671.542 748.155 672.245 747.471 671.529 741.582C670.283 731.344 668.991 721.111 667.787 710.868C665.281 689.559 662.877 668.238 660.327 646.935C657.204 620.842 653.91 594.769 650.81 568.674C647.945 544.555 645.29 520.411 642.447 496.29C639.585 472.012 636.572 447.751 633.689 423.476C631.905 408.447 630.181 393.409 628.555 378.362C628.049 373.683 626.129 371.353 621.033 371.116C614.91 370.832 608.844 369.486 602.733 368.777C583.737 366.574 564.753 364.218 545.721 362.368C526.681 360.517 507.611 358.749 488.512 357.776C467.238 356.692 445.974 354.702 424.635 355.466C412.328 355.907 400.021 356.498 387.734 357.321C368.631 358.601 349.51 359.78 330.461 361.648C303.808 364.261 277.182 367.185 250.681 371.149C243.153 372.275 243.179 371.982 242.317 379.399C240.455 395.424 238.499 411.439 236.606 427.461C234.499 445.296 232.44 463.137 230.322 480.97C228.066 499.963 225.766 518.951 223.398 538.843ZM710.5 943.888C730.162 943.884 749.826 943.754 769.486 943.97C774.181 944.021 775.792 942.768 775.781 937.837C775.732 915.517 776.169 893.17 773.558 870.967C771.583 854.169 767.579 837.827 758.023 823.466C741.033 797.93 714.953 786.896 686.64 780.594C649.502 772.329 611.476 770.472 573.672 767.56C545.629 765.399 517.479 763.965 489.36 763.624C440.402 763.03 391.431 762.621 342.478 765.012C308.387 766.677 274.357 768.911 240.39 772.232C218.02 774.419 195.697 776.851 174.042 783.263C155.83 788.655 138.594 796.022 124.559 809.299C106.866 826.036 100.113 847.735 97.3595 871.046C94.8768 892.065 95.0983 913.198 95.3196 934.317C95.3235 934.688 95.3274 935.059 95.3313 935.429C95.4207 943.998 93.7542 943.877 104.122 943.878C289.2 943.879 474.277 943.883 660.126 943.887C676.911 943.887 693.702 943.888 710.5 943.888ZM631.203 343.07C637.328 345.294 642.249 341.69 647.28 339.434C669.768 329.353 688.363 314.946 699.461 292.155C708.361 273.878 710.027 254.16 711.641 234.4C713.267 214.496 714.775 194.582 716.363 174.674C716.454 173.531 716.546 172.387 716.637 171.243C718.001 154.141 719.364 137.039 720.829 119.945C721.126 116.484 719.975 114.47 716.799 112.872C689.267 99.0211 660.146 91.8145 629.327 91.1914C625.369 91.1114 624.092 92.7734 623.359 96.1366C615.992 129.949 608.483 163.731 601.231 197.568C600.291 201.957 598.577 203.53 593.978 203.488C569.814 203.268 545.644 203.182 521.483 203.534C515.878 203.616 514.359 201.401 513.826 196.533C510.875 169.581 507.76 142.648 504.7 115.708C503.311 103.479 501.921 91.2499 500.528 79.0212C500.148 75.6896 499.408 73.2319 495.039 72.8598C486.098 72.0984 477.248 70.2572 468.306 69.5086C437.14 66.8995 406.094 68.0682 375.19 73.039C372.12 73.5327 370.852 74.7935 370.523 77.6949C368.498 95.5455 366.359 113.383 364.363 131.237C361.867 153.555 359.453 175.882 357.05 198.21C356.677 201.676 355.431 203.47 351.437 203.444C326.438 203.286 301.437 203.305 276.438 203.42C272.743 203.438 271.175 202.122 270.4 198.5C266.956 182.398 263.222 166.359 259.629 150.289C255.563 132.1 251.499 113.91 247.523 95.7017C246.801 92.393 245.267 91.0375 241.693 91.1919C236.206 91.429 230.737 91.6291 225.257 92.148C199.571 94.5801 175.352 101.839 152.469 113.709C150.184 114.894 149.566 116.323 149.843 118.896C150.575 125.676 150.887 132.5 151.425 139.302C152.774 156.383 154.119 173.464 155.534 190.539C157.087 209.269 158.744 227.991 160.306 246.72C161.814 264.81 165.519 282.292 174.758 298.182C187.919 320.819 208.619 333.887 232.299 343.063C233.636 343.582 235.27 343.737 236.7 343.552C250.059 341.827 263.401 339.969 276.754 338.191C297.037 335.491 317.393 333.445 337.78 331.737C353.203 330.445 368.637 329.195 384.089 328.336C401.376 327.374 418.692 326.23 435.987 326.342C455.618 326.469 475.26 327.589 494.861 328.85C515.947 330.206 536.998 332.136 558.05 333.983C582.25 336.107 606.282 339.644 631.203 343.07Z" fill="black"/>
<path d="M223.398 538.843C221.518 555.033 219.663 571.226 217.751 587.413C215.293 608.223 212.776 629.027 210.309 649.836C208.428 665.693 206.6 681.555 204.722 697.412C202.923 712.608 201.105 727.801 199.26 742.991C198.803 746.758 200.08 747.934 204.039 747.464L205.443 747.297C224.625 745.022 243.815 742.745 263.049 740.992C297.37 737.863 331.788 735.953 366.227 735.047C402.688 734.088 439.162 733.725 475.655 734.523C513.114 735.342 550.519 736.662 587.883 739.557C613.941 741.576 639.962 743.795 665.856 747.37C671.542 748.155 672.245 747.471 671.529 741.582C670.283 731.344 668.991 721.111 667.787 710.868C665.281 689.559 662.877 668.238 660.327 646.935C657.204 620.842 653.91 594.769 650.81 568.674C647.945 544.555 645.29 520.411 642.447 496.29C639.585 472.012 636.572 447.751 633.689 423.476C631.905 408.447 630.181 393.409 628.555 378.362C628.049 373.683 626.129 371.353 621.033 371.116C614.91 370.832 608.844 369.486 602.733 368.777C583.737 366.574 564.753 364.218 545.721 362.368C526.681 360.517 507.611 358.749 488.512 357.776C467.238 356.692 445.974 354.702 424.635 355.466C412.328 355.907 400.021 356.498 387.734 357.321C368.631 358.601 349.51 359.78 330.461 361.648C303.808 364.261 277.182 367.185 250.681 371.149C243.153 372.275 243.179 371.982 242.317 379.399C240.455 395.424 238.499 411.439 236.606 427.461C234.499 445.296 232.44 463.137 230.322 480.97C228.066 499.963 225.766 518.951 223.398 538.843Z" fill="#444444"/>
<path d="M631.203 343.07C637.328 345.294 642.249 341.69 647.28 339.434C669.768 329.353 688.363 314.946 699.461 292.155C708.361 273.878 710.027 254.16 711.641 234.4C713.267 214.496 714.775 194.582 716.363 174.674L716.637 171.243C718.001 154.141 719.364 137.039 720.829 119.945C721.126 116.484 719.975 114.47 716.799 112.872C689.267 99.0211 660.146 91.8145 629.327 91.1914C625.369 91.1114 624.092 92.7734 623.359 96.1366C615.992 129.949 608.483 163.731 601.231 197.568C600.291 201.957 598.577 203.53 593.978 203.488C569.814 203.268 545.644 203.182 521.483 203.534C515.878 203.616 514.359 201.401 513.826 196.533C510.875 169.581 507.76 142.648 504.7 115.708C503.311 103.479 501.921 91.2499 500.528 79.0212C500.148 75.6896 499.408 73.2319 495.039 72.8598C486.098 72.0984 477.248 70.2572 468.306 69.5086C437.14 66.8995 406.094 68.0682 375.19 73.039C372.12 73.5327 370.852 74.7935 370.523 77.6949C368.498 95.5455 366.359 113.383 364.363 131.237C361.867 153.555 359.453 175.882 357.05 198.21C356.677 201.676 355.431 203.47 351.437 203.444C326.438 203.286 301.437 203.305 276.438 203.42C272.743 203.438 271.175 202.122 270.4 198.5C266.956 182.398 263.222 166.359 259.629 150.289C255.563 132.1 251.499 113.91 247.523 95.7017C246.801 92.393 245.267 91.0375 241.693 91.1919C236.206 91.429 230.737 91.6291 225.257 92.148C199.571 94.5801 175.352 101.839 152.469 113.709C150.184 114.894 149.566 116.323 149.843 118.896C150.575 125.676 150.887 132.5 151.425 139.302C152.774 156.383 154.119 173.464 155.534 190.539C157.087 209.269 158.744 227.991 160.306 246.72C161.814 264.81 165.519 282.292 174.758 298.182C187.919 320.819 208.619 333.887 232.299 343.063C233.636 343.582 235.27 343.737 236.7 343.552C250.059 341.827 263.401 339.969 276.754 338.191C297.037 335.491 317.393 333.445 337.78 331.737C353.203 330.445 368.637 329.195 384.089 328.336C401.376 327.374 418.692 326.23 435.987 326.342C455.618 326.469 475.26 327.589 494.861 328.85C515.947 330.206 536.998 332.136 558.05 333.983C582.25 336.107 606.282 339.644 631.203 343.07Z" fill="#444444"/>
<path d="M710.5 943.888C730.162 943.884 749.826 943.754 769.486 943.97C774.181 944.021 775.792 942.768 775.781 937.837C775.732 915.517 776.169 893.17 773.558 870.967C771.583 854.169 767.579 837.827 758.023 823.466C741.033 797.93 714.953 786.896 686.64 780.594C649.502 772.329 611.476 770.472 573.672 767.56C545.629 765.399 517.479 763.965 489.36 763.624C440.402 763.03 391.431 762.621 342.478 765.012C308.387 766.677 274.357 768.911 240.39 772.232C218.02 774.419 195.697 776.851 174.042 783.263C155.83 788.655 138.594 796.022 124.559 809.299C106.866 826.036 100.113 847.735 97.3595 871.046C94.8768 892.065 95.0983 913.198 95.3196 934.317L95.3313 935.429C95.4207 943.998 93.7542 943.877 104.122 943.878C289.2 943.879 474.277 943.883 660.126 943.887L710.5 943.888Z" fill="#444444"/>
</svg>
